<svg width="28" height="28" viewBox="0 0 28 28" fill="none" xmlns="http://www.w3.org/2000/svg">
<path d="M17.113 0C11.1124 0 6.226 4.88639 6.226 10.887C6.226 13.4939 7.14034 15.884 8.67558 17.7594L0 26.435L1.56501 28L10.2406 19.3244C12.116 20.8597 14.5061 21.774 17.113 21.774C23.1136 21.774 28 16.8876 28 10.887C28 4.88639 23.1136 0 17.113 0ZM17.113 2.1774C21.9356 2.1774 25.8226 6.0644 25.8226 10.887C25.8226 15.7096 21.9356 19.5966 17.113 19.5966C12.2904 19.5966 8.4034 15.7096 8.4034 10.887C8.4034 6.0644 12.2904 2.1774 17.113 2.1774Z" fill="#4D4B4B"/>
</svg>
