<svg width="22" height="24" viewBox="0 0 22 24" fill="none" xmlns="http://www.w3.org/2000/svg">
<path d="M10.9999 0.75C8.76218 0.75 6.61607 1.63895 5.03373 3.22129C3.4514 4.80362 2.56245 6.94974 2.56245 9.1875V13.6894L0.754949 18.2156C0.698336 18.3578 0.677376 18.5116 0.693897 18.6637C0.710417 18.8158 0.763916 18.9616 0.849725 19.0883C0.935534 19.2149 1.05104 19.3187 1.18617 19.3905C1.3213 19.4622 1.47194 19.4998 1.62495 19.5H7.24995C7.24995 21.5775 8.92245 23.25 10.9999 23.25C13.0774 23.25 14.7499 21.5775 14.7499 19.5H20.3749C20.528 19.4998 20.6786 19.4622 20.8137 19.3905C20.9489 19.3187 21.0644 19.2149 21.1502 19.0883C21.236 18.9616 21.2895 18.8158 21.306 18.6637C21.3225 18.5116 21.3016 18.3578 21.2449 18.2156L19.4374 13.6875V9.1875C19.4374 6.94974 18.5485 4.80362 16.9662 3.22129C15.3838 1.63895 13.2377 0.75 10.9999 0.75ZM12.8749 19.5C12.8749 20.5425 12.0424 21.375 10.9999 21.375C9.95745 21.375 9.12495 20.5425 9.12495 19.5H12.8749ZM4.43745 9.1875C4.43745 7.44702 5.12885 5.77782 6.35956 4.54711C7.59027 3.3164 9.25946 2.625 10.9999 2.625C12.7404 2.625 14.4096 3.3164 15.6403 4.54711C16.871 5.77782 17.5624 7.44702 17.5624 9.1875V13.8713C17.5628 13.9901 17.5857 14.1078 17.6299 14.2181L18.9912 17.625H3.0087L4.36995 14.2181C4.41423 14.1078 4.43714 13.9901 4.43745 13.8713V9.1875Z" fill="#4D4B4B"/>
</svg>
