<svg width="30" height="30" viewBox="0 0 30 30" fill="none" xmlns="http://www.w3.org/2000/svg">
<path d="M9.80005 15H9.81175M14.9883 15H15M20.1883 15H20.2" stroke="#4D4B4B" stroke-width="2.24" stroke-linecap="round" stroke-linejoin="round"/>
<path d="M15 28C22.1796 28 28 22.1796 28 15C28 7.82029 22.1796 2 15 2C7.82029 2 2 7.82029 2 15C2 17.0796 2.48831 19.0451 3.3565 20.7882C3.58722 21.2514 3.66401 21.7809 3.53026 22.2808L2.75596 25.1747C2.41984 26.4309 3.56911 27.5801 4.82535 27.2441L7.71921 26.4698C8.21911 26.336 8.74857 26.4128 9.21179 26.6434C10.9549 27.5117 12.9204 28 15 28Z" stroke="#4D4B4B" stroke-width="2.24"/>
</svg>
