<svg width="28" height="28" viewBox="0 0 28 28" fill="none" xmlns="http://www.w3.org/2000/svg">
<path d="M13.0232 21.8144C13.0232 22.3538 13.4605 22.7911 13.9999 22.7911C14.5394 22.7911 14.9767 22.3538 14.9767 21.8144V17.9074C14.9767 17.368 14.5394 16.9307 13.9999 16.9307C13.4605 16.9307 13.0232 17.368 13.0232 17.9074V21.8144Z" fill="#542ABB"/>
<path fill-rule="evenodd" clip-rule="evenodd" d="M14 0C13.0778 0 12.2399 0.264138 11.3309 0.706173C10.4523 1.13348 9.4372 1.76347 8.16931 2.55037L5.47795 4.22071C4.27826 4.96526 3.3176 5.56145 2.57717 6.1285C1.81043 6.71569 1.22152 7.31372 0.796125 8.09087C0.371619 8.86639 0.180464 9.69157 0.0888059 10.667C-1.27401e-05 11.6122 -1.27135e-05 12.7681 3.09771e-07 14.2177V16.318C-1.27135e-05 18.7974 -2.58102e-05 20.7546 0.198865 22.2849C0.402901 23.8547 0.831613 25.122 1.80028 26.1239C2.77341 27.1306 4.01176 27.5803 5.54479 27.7935C7.03059 28 8.92817 28 11.3196 28H16.6803C19.0718 28 20.9694 28 22.4552 27.7935C23.9882 27.5803 25.2266 27.1306 26.1997 26.1239C27.1683 25.122 27.5971 23.8547 27.8011 22.2849C28 20.7546 28 18.7975 28 16.318V14.2177C28 12.7681 28 11.6122 27.9112 10.667C27.8195 9.69157 27.6283 8.86639 27.2039 8.09087C26.7785 7.31372 26.1896 6.71569 25.4228 6.1285C24.6825 5.56145 23.7217 4.96527 22.522 4.22072L19.8306 2.55036C18.5628 1.76347 17.5477 1.13347 16.669 0.706173C15.7601 0.264138 14.9222 0 14 0ZM9.15474 4.23792C10.4776 3.41692 11.4077 2.84106 12.1852 2.46296C12.9428 2.09457 13.4793 1.95349 14 1.95349C14.5207 1.95349 15.0572 2.09457 15.8148 2.46295C16.5923 2.84106 17.5224 3.41692 18.8453 4.23792L21.45 5.85444C22.7012 6.63104 23.5798 7.17757 24.2351 7.67942C24.8727 8.16772 25.2395 8.57068 25.4903 9.02883C25.742 9.4886 25.8889 10.0261 25.9663 10.8497C26.0455 11.6931 26.0465 12.7573 26.0465 14.2655V16.2465C26.0465 18.8133 26.0446 20.6434 25.8639 22.0331C25.6866 23.398 25.3524 24.1899 24.7952 24.7662C24.2427 25.3378 23.4902 25.6772 22.1862 25.8586C20.8505 26.0443 19.0888 26.0465 16.6047 26.0465H11.3953C8.91112 26.0465 7.14955 26.0443 5.81387 25.8586C4.50977 25.6772 3.75739 25.3378 3.20475 24.7662C2.64764 24.1899 2.31348 23.398 2.13606 22.0331C1.95543 20.6434 1.95349 18.8133 1.95349 16.2465V14.2655C1.95349 12.7573 1.95448 11.6931 2.03373 10.8497C2.11111 10.0261 2.25804 9.4886 2.5097 9.02883C2.76047 8.57068 3.12731 8.16772 3.76492 7.67942C4.42022 7.17757 5.29876 6.63104 6.55009 5.85444L9.15474 4.23792Z" fill="#542ABB"/>
</svg>
