<svg width="26" height="28" viewBox="0 0 26 28" fill="none" xmlns="http://www.w3.org/2000/svg">
<path d="M13.0001 13.0938C11.6381 13.0938 10.3067 12.7098 9.17432 11.9904C8.04189 11.271 7.15927 10.2486 6.63807 9.05227C6.11688 7.85599 5.98051 6.53963 6.24621 5.26966C6.51192 3.99968 7.16776 2.83314 8.13081 1.91754C9.09386 1.00194 10.3209 0.378413 11.6566 0.1258C12.9924 -0.126814 14.377 0.00283664 15.6353 0.498355C16.8936 0.993873 17.9691 1.833 18.7257 2.90963C19.4824 3.98626 19.8862 5.25204 19.8862 6.54689C19.8842 8.28264 19.1581 9.94674 17.8671 11.1741C16.5761 12.4015 14.8258 13.0918 13.0001 13.0938ZM13.0001 2.02972C12.0602 2.02972 11.1413 2.29472 10.3598 2.7912C9.57835 3.28768 8.96926 3.99333 8.6096 4.81893C8.24995 5.64453 8.1559 6.55299 8.33933 7.42941C8.52276 8.30584 8.97544 9.11086 9.64012 9.74268C10.3048 10.3745 11.1516 10.8047 12.0735 10.979C12.9954 11.1532 13.9509 11.0636 14.8192 10.7215C15.6875 10.3795 16.4297 9.80025 16.9517 9.05716C17.4738 8.31408 17.7524 7.4405 17.7522 6.54689C17.7506 5.34918 17.2494 4.20098 16.3585 3.35415C15.4677 2.50732 14.2598 2.03101 13.0001 2.02972Z" fill="#4D4B4B"/>
<path d="M24.9312 27.9993C24.6799 27.999 24.4369 27.9144 24.2448 27.7605C24.0528 27.6065 23.924 27.3931 23.8812 27.1577C23.507 24.681 22.1953 22.4191 20.192 20.7963C18.1887 19.1735 15.6315 18.3013 13.0001 18.3433C10.3686 18.3013 7.81139 19.1735 5.80811 20.7963C3.80482 22.4191 2.49309 24.681 2.11893 27.1577C2.07071 27.4229 1.91366 27.659 1.68234 27.8141C1.45102 27.9692 1.16437 28.0305 0.885448 27.9847C0.60653 27.9389 0.358191 27.7895 0.195064 27.5696C0.031937 27.3497 -0.0326158 27.0772 0.0156064 26.812C0.465022 23.8595 2.03186 21.1642 4.42231 19.2316C6.81277 17.2989 9.86265 16.2617 13.0001 16.3144C16.1375 16.2617 19.1874 17.2989 21.5778 19.2316C23.9683 21.1642 25.5351 23.8595 25.9845 26.812C26.0083 26.9433 26.0046 27.0778 25.9738 27.2077C25.9429 27.3377 25.8854 27.4606 25.8045 27.5694C25.7236 27.6782 25.621 27.7708 25.5025 27.842C25.384 27.9131 25.2519 27.9613 25.1138 27.9839C25.0536 27.9942 24.9924 27.9994 24.9312 27.9993Z" fill="#4D4B4B"/>
</svg>
