<svg width="22" height="22" viewBox="0 0 22 22" fill="none" xmlns="http://www.w3.org/2000/svg">
<path d="M10.0571 10.0571H0.942857C0.4224 10.0571 0 10.4795 0 11C0 11.5205 0.4224 11.9429 0.942857 11.9429H10.0571V21.0571C10.0571 21.5776 10.4795 22 11 22C11.5205 22 11.9429 21.5776 11.9429 21.0571V11.9429H21.0571C21.5776 11.9429 22 11.5205 22 11C22 10.4795 21.5776 10.0571 21.0571 10.0571H11.9429V0.942857C11.9429 0.4224 11.5205 0 11 0C10.4795 0 10.0571 0.4224 10.0571 0.942857V10.0571Z" fill="#898989"/>
</svg>
